
<svg width="34" height="26" viewBox="0 0 34 26" fill="none" xmlns="http://www.w3.org/2000/svg">
<rect x="0.097168" y="8.49414" width="30" height="18" rx="5" transform="rotate(-16.0393 0.097168 8.49414)" fill="black"/>
<path d="M15.75 8V8.83333H14.0833C13.3979 8.83333 12.8333 9.39792 12.8333 10.0833V11.75H12V14.25H14.5V11.75H13.6667V10.0833C13.6667 9.8475 13.8475 9.66667 14.0833 9.66667H15.75V10.5H18.25V8H15.75ZM16.5833 8.83333H17.4167V9.66667H16.5833V8.83333ZM18.6667 8.83333V9.66667H19.9167C20.1525 9.66667 20.3333 9.8475 20.3333 10.0833V11.75H19.5V14.25H22V11.75H21.1667V10.0833C21.1667 9.39792 20.6021 8.83333 19.9167 8.83333H18.6667ZM12.8333 12.5833H13.6667V13.4167H12.8333V12.5833ZM20.3333 12.5833H21.1667V13.4167H20.3333V12.5833ZM12.8333 14.6667V15.9167C12.8333 16.6021 13.3979 17.1667 14.0833 17.1667H15.75V18H18.25V15.5H15.75V16.3333H14.0833C13.8475 16.3333 13.6667 16.1525 13.6667 15.9167V14.6667H12.8333ZM20.3333 14.6667V15.9167C20.3333 16.1525 20.1525 16.3333 19.9167 16.3333H18.6667V17.1667H19.9167C20.6021 17.1667 21.1667 16.6021 21.1667 15.9167V14.6667H20.3333ZM16.5833 16.3333H17.4167V17.1667H16.5833V16.3333Z" fill="white"/>
</svg>
