
<svg width="117" height="180" viewBox="0 0 117 180" fill="none" xmlns="http://www.w3.org/2000/svg">
<path d="M57.0671 179.336V163.41C57.1851 155.034 64.18 137.738 91.0435 139.343C115.035 140.776 116.189 116.331 115.464 103.597V75.6376C115.11 66.5537 107.819 48.7397 81.4877 50.1553C55.156 51.571 58.1288 15.8256 58.129 14.7638C58.1292 13.7021 58.1289 0.960938 58.1289 0.960938" stroke="white"/>
<path d="M57.5047 179.643L57.679 163.717C57.6566 155.34 51.08 137.972 25.0786 139.292C1.85684 140.471 1.00812 116.015 1.84893 103.29L2.15499 75.3316C2.59676 66.2519 9.84381 48.516 35.2978 50.2105C60.7519 51.9049 58.2677 16.13 58.2791 15.0682C58.2905 14.0065 58.4303 1.2661 58.4303 1.2661" stroke="white"/>
</svg>
