
<svg width="28" height="28" viewBox="0 0 28 28" fill="none" xmlns="http://www.w3.org/2000/svg">
<circle cx="14" cy="14" r="14" fill="black"/>
<path d="M9.25215 9.9473L10.1867 10.8793C12.2562 8.81553 15.6608 8.81553 17.7303 10.8793L18.6649 9.9473C16.1281 7.3509 11.8557 7.3509 9.25215 9.9473ZM11.1881 11.8779L12.1227 12.81C13.1908 11.7448 14.8597 11.7448 15.9278 12.81L16.8624 11.8779C15.2603 10.2802 12.7235 10.2802 11.1881 11.8779ZM13.8584 16.0055C13.3243 14.4743 11.5886 13.6089 10.0532 14.208C8.51782 14.8072 7.58323 16.4716 8.18404 18.0028C8.78485 19.534 10.4538 20.3994 11.9892 19.8003C12.857 19.4674 13.5246 18.8017 13.7916 18.0028H15.9946V20H17.9973V18.0028H20V16.0055M10.9878 18.0028C10.4538 18.0028 9.98647 17.5368 9.98647 17.0042C9.98647 16.4716 10.4538 16.0055 10.9878 16.0055C11.5219 16.0055 11.9892 16.4716 11.9892 17.0042C11.9892 17.5368 11.5219 18.0028 10.9878 18.0028Z" fill="white"/>
</svg>
