
<svg width="36" height="30" viewBox="0 0 36 30" fill="none" xmlns="http://www.w3.org/2000/svg">
<rect x="8.14844" y="0.544922" width="30" height="18" rx="5" transform="rotate(24.7606 8.14844 0.544922)" fill="black"/>
<g clip-path="url(#clip0_105_7270)">
<path d="M14.8868 17.3277C14.7171 17.2583 14.5966 17.1385 14.5253 16.9684C14.4539 16.7982 14.4529 16.6282 14.5222 16.4582L15.7847 13.3732C15.8541 13.2035 15.974 13.0831 16.1444 13.0118C16.3147 12.9406 16.4846 12.9395 16.6542 13.0087L16.9627 13.1349L17.2152 12.5179C17.3898 12.0912 17.6891 11.789 18.113 11.6115C18.537 11.4339 18.9623 11.4323 19.3889 11.6066C19.8156 11.781 20.1178 12.0803 20.2957 12.5046C20.4736 12.9289 20.4751 13.3542 20.3002 13.7804L20.0477 14.3974L20.3562 14.5236C20.5259 14.5931 20.6464 14.713 20.7179 14.8834C20.7893 15.0538 20.7903 15.2237 20.7207 15.3931L19.4583 18.4781C19.3888 18.6478 19.269 18.7684 19.0988 18.8399C18.9286 18.9115 18.7586 18.9124 18.5888 18.8426L14.8868 17.3277ZM15.1393 16.7107L18.8413 18.2256L20.1037 15.1406L16.4017 13.6257L15.1393 16.7107ZM17.369 16.5427C17.5387 16.6121 17.7087 16.6112 17.879 16.54C18.0494 16.4687 18.1692 16.3481 18.2385 16.1782C18.3078 16.0082 18.3069 15.8383 18.2357 15.6684C18.1645 15.4986 18.0439 15.3787 17.874 15.3087C17.7041 15.2386 17.5341 15.2397 17.3641 15.3118C17.1942 15.3839 17.0743 15.5044 17.0045 15.6732C16.9347 15.842 16.9357 16.012 17.0075 16.1833C17.0793 16.3546 17.1998 16.4744 17.369 16.5427ZM17.5797 13.3874L19.4307 14.1449L19.6832 13.5279C19.7884 13.2708 19.7878 13.0155 19.6815 12.7619C19.5752 12.5083 19.3935 12.3288 19.1364 12.2236C18.8793 12.1184 18.624 12.119 18.3704 12.2253C18.1168 12.3316 17.9374 12.5133 17.8322 12.7704L17.5797 13.3874Z" fill="white"/>
</g>
<defs>
<clipPath id="clip0_105_7270">
<rect width="8" height="8" fill="white" transform="translate(15.813 9.7832) rotate(22.2553)"/>
</clipPath>
</defs>
</svg>
