
<svg width="27" height="27" viewBox="0 0 27 27" fill="none" xmlns="http://www.w3.org/2000/svg">
<circle cx="13.5" cy="13.5" r="13.5" fill="black"/>
<path d="M13.5001 12.0833C14.2792 12.0833 14.9167 12.7208 14.9167 13.5C14.9167 14.2792 14.2792 14.9167 13.5001 14.9167C12.7209 14.9167 12.0834 14.2792 12.0834 13.5C12.0834 12.7208 12.7209 12.0833 13.5001 12.0833ZM13.5001 10.6667C11.9417 10.6667 10.6667 11.9417 10.6667 13.5C10.6667 15.0583 11.9417 16.3333 13.5001 16.3333C15.0584 16.3333 16.3334 15.0583 16.3334 13.5C16.3334 11.9417 15.0584 10.6667 13.5001 10.6667ZM15.6251 17.0417H11.3751V18.4583H15.6251V17.0417ZM15.6251 19.1667H11.3751V20.5833H15.6251V19.1667ZM9.46257 12.5083L12.4376 9.53333L11.5167 8.47083L8.4709 11.5167L9.46257 12.5083ZM7.97507 11.0208L10.9501 8.04583L10.0292 6.98333L6.9834 10.0292L7.97507 11.0208ZM15.6251 17.0417H11.3751V18.4583H15.6251V17.0417ZM14.4917 9.4625L17.4667 12.4375L19.9459 9.95833L16.9709 6.98333L14.4917 9.4625Z" fill="white"/>
</svg>
