
<svg width="25" height="31" viewBox="0 0 25 31" fill="none" xmlns="http://www.w3.org/2000/svg">
<path d="M0 20.0173V11.5057C0 9.84904 0.820591 8.29992 2.19115 7.36925L10.1088 1.99278C11.8665 0.799199 14.1866 0.846825 15.8939 2.11153L22.9762 7.35798C24.2492 8.30098 25 9.79147 25 11.3757V20.1462C25 21.7922 24.1898 23.3328 22.8337 24.2657L15.7575 29.1331C14.1108 30.2658 11.9477 30.3091 10.257 29.243L2.33316 24.2467C0.880883 23.3309 0 21.7341 0 20.0173Z" fill="black"/>
<path d="M7.9045 11C7.30001 11.5903 6.82058 12.2917 6.49375 13.0639C6.16692 13.8362 5.99912 14.6641 6 15.5C6 17.2567 6.728 18.8479 7.9045 20L8.821 19.1025C8.33652 18.6306 7.9526 18.0691 7.6915 17.4507C7.4304 16.8322 7.29732 16.1692 7.3 15.5C7.3 14.0934 7.8785 12.814 8.821 11.8975L7.9045 11ZM17.0955 11L16.179 11.8975C16.6629 12.3698 17.0464 12.9314 17.3075 13.5497C17.5686 14.1681 17.702 14.8309 17.7 15.5C17.7 16.913 17.1215 18.186 16.179 19.1025L17.0955 20C17.7 19.4097 18.1794 18.7083 18.5062 17.9361C18.8331 17.1638 19.0009 16.3359 19 15.5C19 13.7433 18.272 12.1521 17.0955 11ZM9.744 12.8013C9.38117 13.1551 9.09332 13.5757 8.897 14.0389C8.70068 14.502 8.59974 14.9986 8.6 15.5C8.6 16.5502 9.0355 17.505 9.744 18.1987L10.6605 17.3013C10.4191 17.0647 10.2277 16.7838 10.0972 16.4747C9.96676 16.1657 9.89973 15.8344 9.9 15.5C9.9 14.7935 10.1925 14.157 10.6605 13.6987L9.744 12.8013ZM15.256 12.8013L14.3395 13.6987C14.5809 13.9353 14.7723 14.2162 14.9028 14.5253C15.0332 14.8343 15.1003 15.1656 15.1 15.5C15.1 16.2065 14.8075 16.843 14.3395 17.3013L15.256 18.1987C15.6188 17.8449 15.9067 17.4243 16.103 16.9611C16.2993 16.498 16.4003 16.0015 16.4 15.5C16.4 14.4498 15.9645 13.495 15.256 12.8013ZM12.5 14.227C12.1552 14.227 11.8246 14.3611 11.5808 14.5999C11.337 14.8386 11.2 15.1624 11.2 15.5C11.2 15.8376 11.337 16.1614 11.5808 16.4001C11.8246 16.6389 12.1552 16.773 12.5 16.773C12.8448 16.773 13.1754 16.6389 13.4192 16.4001C13.663 16.1614 13.8 15.8376 13.8 15.5C13.8 15.1624 13.663 14.8386 13.4192 14.5999C13.1754 14.3611 12.8448 14.227 12.5 14.227Z" fill="white"/>
</svg>
